<svg width="49" height="94" viewBox="0 0 49 94" fill="none" xmlns="http://www.w3.org/2000/svg">
<mask id="mask0_58_33" style="mask-type:alpha" maskUnits="userSpaceOnUse" x="0" y="0" width="49" height="94">
<g clip-path="url(#clip0_58_33)">
<path d="M45 2C45 3.10457 45.8954 4 47 4C48.1046 4 49 3.10457 49 2C49 0.89543 48.1046 0 47 0C45.8954 0 45 0.89543 45 2Z" fill="#6FC081"/>
<path d="M45 17C45 18.1046 45.8954 19 47 19C48.1046 19 49 18.1046 49 17C49 15.8954 48.1046 15 47 15C45.8954 15 45 15.8954 45 17Z" fill="#6FC081"/>
<path d="M45 32C45 33.1046 45.8954 34 47 34C48.1046 34 49 33.1046 49 32C49 30.8954 48.1046 30 47 30C45.8954 30 45 30.8954 45 32Z" fill="#6FC081"/>
<path d="M30 2C30 3.10457 30.8954 4 32 4C33.1046 4 34 3.10457 34 2C34 0.89543 33.1046 0 32 0C30.8954 0 30 0.89543 30 2Z" fill="#6FC081"/>
<path d="M30 17C30 18.1046 30.8954 19 32 19C33.1046 19 34 18.1046 34 17C34 15.8954 33.1046 15 32 15C30.8954 15 30 15.8954 30 17Z" fill="#6FC081"/>
<path d="M30 32C30 33.1046 30.8954 34 32 34C33.1046 34 34 33.1046 34 32C34 30.8954 33.1046 30 32 30C30.8954 30 30 30.8954 30 32Z" fill="#6FC081"/>
<path d="M15 2C15 3.10457 15.8954 4 17 4C18.1046 4 19 3.10457 19 2C19 0.89543 18.1046 0 17 0C15.8954 0 15 0.89543 15 2Z" fill="#6FC081"/>
<path d="M15 17C15 18.1046 15.8954 19 17 19C18.1046 19 19 18.1046 19 17C19 15.8954 18.1046 15 17 15C15.8954 15 15 15.8954 15 17Z" fill="#6FC081"/>
<path d="M15 32C15 33.1046 15.8954 34 17 34C18.1046 34 19 33.1046 19 32C19 30.8954 18.1046 30 17 30C15.8954 30 15 30.8954 15 32Z" fill="#6FC081"/>
<path d="M0 2C0 3.10457 0.895431 4 2 4C3.10457 4 4 3.10457 4 2C4 0.89543 3.10457 0 2 0C0.895431 0 0 0.89543 0 2Z" fill="#6FC081"/>
<path d="M0 17C0 18.1046 0.895431 19 2 19C3.10457 19 4 18.1046 4 17C4 15.8954 3.10457 15 2 15C0.895431 15 0 15.8954 0 17Z" fill="#6FC081"/>
<path d="M0 32C0 33.1046 0.895431 34 2 34C3.10457 34 4 33.1046 4 32C4 30.8954 3.10457 30 2 30C0.895431 30 0 30.8954 0 32Z" fill="#6FC081"/>
<path d="M45 47C45 48.1046 45.8954 49 47 49C48.1046 49 49 48.1046 49 47C49 45.8954 48.1046 45 47 45C45.8954 45 45 45.8954 45 47Z" fill="#6FC081"/>
<path d="M45 62C45 63.1046 45.8954 64 47 64C48.1046 64 49 63.1046 49 62C49 60.8954 48.1046 60 47 60C45.8954 60 45 60.8954 45 62Z" fill="#6FC081"/>
<path d="M45 77C45 78.1046 45.8954 79 47 79C48.1046 79 49 78.1046 49 77C49 75.8954 48.1046 75 47 75C45.8954 75 45 75.8954 45 77Z" fill="#6FC081"/>
<path d="M45 92C45 93.1046 45.8954 94 47 94C48.1046 94 49 93.1046 49 92C49 90.8954 48.1046 90 47 90C45.8954 90 45 90.8954 45 92Z" fill="#6FC081"/>
<path d="M30 47C30 48.1046 30.8954 49 32 49C33.1046 49 34 48.1046 34 47C34 45.8954 33.1046 45 32 45C30.8954 45 30 45.8954 30 47Z" fill="#6FC081"/>
<path d="M30 62C30 63.1046 30.8954 64 32 64C33.1046 64 34 63.1046 34 62C34 60.8954 33.1046 60 32 60C30.8954 60 30 60.8954 30 62Z" fill="#6FC081"/>
<path d="M30 77C30 78.1046 30.8954 79 32 79C33.1046 79 34 78.1046 34 77C34 75.8954 33.1046 75 32 75C30.8954 75 30 75.8954 30 77Z" fill="#6FC081"/>
<path d="M30 92C30 93.1046 30.8954 94 32 94C33.1046 94 34 93.1046 34 92C34 90.8954 33.1046 90 32 90C30.8954 90 30 90.8954 30 92Z" fill="#6FC081"/>
<path d="M15 47C15 48.1046 15.8954 49 17 49C18.1046 49 19 48.1046 19 47C19 45.8954 18.1046 45 17 45C15.8954 45 15 45.8954 15 47Z" fill="#6FC081"/>
<path d="M15 62C15 63.1046 15.8954 64 17 64C18.1046 64 19 63.1046 19 62C19 60.8954 18.1046 60 17 60C15.8954 60 15 60.8954 15 62Z" fill="#6FC081"/>
<path d="M15 77C15 78.1046 15.8954 79 17 79C18.1046 79 19 78.1046 19 77C19 75.8954 18.1046 75 17 75C15.8954 75 15 75.8954 15 77Z" fill="#6FC081"/>
<path d="M15 92C15 93.1046 15.8954 94 17 94C18.1046 94 19 93.1046 19 92C19 90.8954 18.1046 90 17 90C15.8954 90 15 90.8954 15 92Z" fill="#6FC081"/>
<path d="M0 47C0 48.1046 0.895431 49 2 49C3.10457 49 4 48.1046 4 47C4 45.8954 3.10457 45 2 45C0.895431 45 0 45.8954 0 47Z" fill="#6FC081"/>
<path d="M0 62C0 63.1046 0.895431 64 2 64C3.10457 64 4 63.1046 4 62C4 60.8954 3.10457 60 2 60C0.895431 60 0 60.8954 0 62Z" fill="#6FC081"/>
<path d="M0 77C0 78.1046 0.895431 79 2 79C3.10457 79 4 78.1046 4 77C4 75.8954 3.10457 75 2 75C0.895431 75 0 75.8954 0 77Z" fill="#6FC081"/>
<path d="M0 92C0 93.1046 0.895431 94 2 94C3.10457 94 4 93.1046 4 92C4 90.8954 3.10457 90 2 90C0.895431 90 0 90.8954 0 92Z" fill="#6FC081"/>
</g>
</mask>
<g mask="url(#mask0_58_33)">
<rect y="-7" width="49" height="111" fill="white"/>
</g>
<defs>
<clipPath id="clip0_58_33">
<rect width="49" height="94" fill="white"/>
</clipPath>
</defs>
</svg>
